<svg width="252" height="264" viewBox="0 0 252 264" fill="none" xmlns="http://www.w3.org/2000/svg">
<path d="M85.9714 202.265L160.383 241.428C162.867 242.738 162.867 244.839 160.366 246.13L128.911 262.374C126.428 263.665 124.496 263.594 122.012 262.32L4.51862 201.35C2.04481 200.075 0 196.881 0 194.314V69.1819C0 66.5972 2.04481 63.4384 4.51862 62.1463L68.5779 28.8519C71.0836 27.5683 72.1528 28.681 72.1528 30.4045V177.371C72.1528 191.55 73.6198 195.534 85.9714 202.265Z" fill="#E6290F"/>
<path d="M170.118 159.761L120.63 135.064C118.12 133.844 118.084 132.412 118.084 130.097V95.8599C118.084 93.132 120.165 92.1895 122.71 93.3564L182.13 122.254V91.867C182.13 73.3617 180.672 68.0135 168.24 60.9599L92.4497 21.1943C89.9849 19.9022 89.9933 17.7665 92.4677 16.4738L122.638 1.00219C125.103 -0.298898 126.222 -0.344033 128.713 0.930574L246.632 61.5695C249.11 62.8615 251.146 66.0204 251.146 68.5876V194.312C251.146 196.879 249.11 200.074 246.632 201.348L195.658 227.821C193.18 229.096 187.404 232.111 185.534 233.081C183.669 234.049 182.13 234.606 182.13 232.039V182.232C182.13 172.379 181.495 165.415 170.118 159.761Z" fill="#E6290F"/>
</svg>
